<svg width="26" height="27" viewBox="0 0 26 27" fill="none" xmlns="http://www.w3.org/2000/svg">
<path id="Instagram" d="M13 7.49817C11.8133 7.49817 10.6533 7.85006 9.66658 8.50935C8.67988 9.16864 7.91085 10.1057 7.45672 11.2021C7.0026 12.2984 6.88378 13.5048 7.11529 14.6687C7.3468 15.8326 7.91824 16.9017 8.75736 17.7408C9.59647 18.5799 10.6656 19.1514 11.8295 19.3829C12.9933 19.6144 14.1997 19.4956 15.2961 19.0414C16.3925 18.5873 17.3295 17.8183 17.9888 16.8316C18.6481 15.8449 19 14.6849 19 13.4982C18.9983 11.9074 18.3657 10.3822 17.2408 9.25736C16.116 8.1325 14.5908 7.49982 13 7.49817ZM13 17.4982C12.2089 17.4982 11.4355 17.2636 10.7777 16.824C10.1199 16.3845 9.60723 15.7598 9.30448 15.0289C9.00173 14.298 8.92252 13.4937 9.07686 12.7178C9.2312 11.9419 9.61216 11.2292 10.1716 10.6697C10.731 10.1103 11.4437 9.72937 12.2196 9.57503C12.9956 9.42069 13.7998 9.4999 14.5307 9.80265C15.2616 10.1054 15.8864 10.6181 16.3259 11.2759C16.7654 11.9337 17 12.707 17 13.4982C17 14.559 16.5786 15.5764 15.8284 16.3266C15.0783 17.0767 14.0609 17.4982 13 17.4982ZM19 0.498169H7C5.14409 0.500154 3.36477 1.23829 2.05245 2.55061C0.740121 3.86294 0.00198528 5.64226 0 7.49817V19.4982C0.00198528 21.3541 0.740121 23.1334 2.05245 24.4457C3.36477 25.758 5.14409 26.4962 7 26.4982H19C20.8559 26.4962 22.6352 25.758 23.9476 24.4457C25.2599 23.1334 25.998 21.3541 26 19.4982V7.49817C25.998 5.64226 25.2599 3.86294 23.9476 2.55061C22.6352 1.23829 20.8559 0.500154 19 0.498169ZM24 19.4982C24 20.8243 23.4732 22.096 22.5355 23.0337C21.5979 23.9714 20.3261 24.4982 19 24.4982H7C5.67392 24.4982 4.40215 23.9714 3.46447 23.0337C2.52678 22.096 2 20.8243 2 19.4982V7.49817C2 6.17209 2.52678 4.90032 3.46447 3.96264C4.40215 3.02495 5.67392 2.49817 7 2.49817H19C20.3261 2.49817 21.5979 3.02495 22.5355 3.96264C23.4732 4.90032 24 6.17209 24 7.49817V19.4982ZM21 6.99817C21 7.29484 20.912 7.58485 20.7472 7.83152C20.5824 8.0782 20.3481 8.27046 20.074 8.38399C19.7999 8.49752 19.4983 8.52722 19.2074 8.46935C18.9164 8.41147 18.6491 8.26861 18.4393 8.05883C18.2296 7.84905 18.0867 7.58178 18.0288 7.2908C17.9709 6.99983 18.0007 6.69823 18.1142 6.42414C18.2277 6.15005 18.42 5.91579 18.6666 5.75096C18.9133 5.58614 19.2033 5.49817 19.5 5.49817C19.8978 5.49817 20.2794 5.6562 20.5607 5.93751C20.842 6.21881 21 6.60034 21 6.99817Z" fill="#000080"/>
</svg>
