<svg width="28" height="26" viewBox="0 0 28 26" fill="none" xmlns="http://www.w3.org/2000/svg">
<path id="Git" d="M26.7687 11.6324L24.2812 2.11986C24.2021 1.81092 24.026 1.53545 23.7789 1.33384C23.5318 1.13224 23.2266 1.01509 22.908 0.999573C22.5895 0.984058 22.2743 1.07099 22.0088 1.24763C21.7432 1.42427 21.5413 1.68132 21.4325 1.98111L19.2225 7.99486H8.77746L6.56746 1.97861C6.45842 1.67887 6.25622 1.42194 5.99051 1.2455C5.72479 1.06905 5.40954 0.982374 5.09097 0.99817C4.7724 1.01397 4.46727 1.1314 4.22031 1.33327C3.97336 1.53513 3.79757 1.8108 3.71871 2.11986L1.23121 11.6324C0.863824 13.0323 0.930024 14.5108 1.42106 15.8723C1.91209 17.2338 2.80483 18.4142 3.98121 19.2574L13.14 25.7274C13.3912 25.9048 13.6912 26 13.9987 26C14.3063 26 14.6062 25.9048 14.8575 25.7274L24.0162 19.2574C25.193 18.4145 26.0863 17.2343 26.5778 15.8727C27.0693 14.5112 27.1358 13.0326 26.7687 11.6324ZM22.8637 17.6199L14 23.8811L5.13621 17.6199C4.29211 17.0129 3.65201 16.1642 3.30049 15.1857C2.94898 14.2073 2.90259 13.1452 3.16746 12.1399L5.24996 4.18236L7.14121 9.33986C7.21183 9.532 7.33972 9.69783 7.5076 9.81497C7.67548 9.9321 7.87526 9.99489 8.07996 9.99486H19.92C20.1247 9.99489 20.3244 9.9321 20.4923 9.81497C20.6602 9.69783 20.7881 9.532 20.8587 9.33986L22.75 4.18236L24.8287 12.1386C25.0942 13.1438 25.0486 14.2058 24.6977 15.1845C24.3469 16.1632 23.7074 17.0123 22.8637 17.6199Z" fill="currentColor"/>
</svg>
