<svg width="553" height="356" viewBox="0 0 553 356" fill="none" xmlns="http://www.w3.org/2000/svg">
<path fill-rule="evenodd" clip-rule="evenodd" d="M221.694 27.5862L90.9999 257.759L120.591 275L234.024 75L272.76 148.215L221.694 190.517L225.804 220.69L340.059 266.379L362.253 243.966L317.078 156.525L351.567 129.31L425.545 271.552L453.492 253.448L379.514 106.897L465 38.7931L443.628 11.2069L362.253 75L324.442 0L296.494 17.2414L335.127 96.5517L300.789 124.997L250.464 27.5862H221.694ZM308.002 215.517L288.274 179.31L265.259 197.414L308.002 215.517Z" fill="currentColor"/>
<path d="M43.0719 355H31.7439L28.7999 345.464H14.3359L11.3279 355H0.255859L15.1039 312.76H28.2879L43.0719 355ZM16.3839 337.976H26.7519L21.5679 320.888L16.3839 337.976Z" fill="currentColor"/>
<path d="M58.9924 346.488H80.1764V355H47.9844V312.76H58.9924V346.488Z" fill="currentColor"/>
<path d="M119.316 321.272H97.4924V330.232H114.9V338.744H97.4924V355H86.4844V312.76H119.316V321.272Z" fill="currentColor"/>
<path d="M145.832 312.76C150.867 312.76 154.771 313.955 157.544 316.344C160.36 318.691 161.768 321.827 161.768 325.752C161.768 330.061 160.381 333.347 157.608 335.608C154.835 337.869 150.931 339 145.896 339L144.872 339.576H136.488V355H125.672V312.76H145.832ZM144.296 331.768C146.429 331.768 148.029 331.341 149.096 330.488C150.163 329.635 150.696 328.269 150.696 326.392C150.696 324.557 150.163 323.213 149.096 322.36C148.029 321.507 146.429 321.08 144.296 321.08H136.488V331.768H144.296ZM150.76 334.072L164.264 355H152.104L141.288 336.504L150.76 334.072Z" fill="currentColor"/>
<path d="M169.797 355V312.76H202.693V321.272H180.805V329.848H198.213V337.848H180.805V346.488H203.525V355H169.797Z" fill="currentColor"/>
<path d="M228.092 312.76C234.705 312.76 239.761 314.595 243.26 318.264C246.801 321.933 248.572 327.139 248.572 333.88C248.572 340.621 246.801 345.827 243.26 349.496C239.761 353.165 234.705 355 228.092 355H210.172V312.76H228.092ZM227.004 346.68C230.588 346.68 233.191 345.613 234.812 343.48C236.476 341.304 237.308 338.104 237.308 333.88C237.308 329.656 236.476 326.477 234.812 324.344C233.191 322.168 230.588 321.08 227.004 321.08H221.18V346.68H227.004Z" fill="currentColor"/>
<path d="M312.566 312.76V355H301.558V312.76H312.566ZM285.43 312.76V355H274.422V312.76H285.43ZM307.446 329.464V337.976H279.798V329.464H307.446Z" fill="currentColor"/>
<path d="M358.85 312.76V337.784C358.85 343.757 357.25 348.237 354.05 351.224C350.893 354.168 346.199 355.64 339.97 355.64C333.783 355.64 329.09 354.168 325.89 351.224C322.69 348.237 321.09 343.757 321.09 337.784V312.76H332.162V337.976C332.162 341.005 332.802 343.267 334.082 344.76C335.405 346.253 337.367 347 339.97 347C342.615 347 344.578 346.253 345.858 344.76C347.181 343.267 347.842 341.005 347.842 337.976V312.76H358.85Z" fill="currentColor"/>
<path d="M402.879 312.76V321.272H389.119V355H378.111V321.272H364.287V312.76H402.879Z" fill="currentColor"/>
<path d="M426.366 312.12C430.633 312.12 434.302 312.995 437.374 314.744C440.489 316.451 442.878 318.925 444.542 322.168C446.206 325.411 447.038 329.315 447.038 333.88C447.038 338.445 446.206 342.349 444.542 345.592C442.878 348.835 440.489 351.331 437.374 353.08C434.302 354.787 430.633 355.64 426.366 355.64C422.099 355.64 418.409 354.787 415.294 353.08C412.179 351.331 409.79 348.835 408.126 345.592C406.462 342.349 405.63 338.445 405.63 333.88C405.63 329.315 406.462 325.411 408.126 322.168C409.79 318.925 412.179 316.451 415.294 314.744C418.409 312.995 422.099 312.12 426.366 312.12ZM426.366 320.76C424.318 320.76 422.59 321.251 421.182 322.232C419.774 323.213 418.707 324.685 417.982 326.648C417.257 328.568 416.894 330.979 416.894 333.88C416.894 336.739 417.257 339.149 417.982 341.112C418.707 343.075 419.774 344.547 421.182 345.528C422.59 346.509 424.318 347 426.366 347C428.414 347 430.121 346.509 431.486 345.528C432.894 344.547 433.961 343.075 434.686 341.112C435.411 339.149 435.774 336.739 435.774 333.88C435.774 330.979 435.411 328.568 434.686 326.648C433.961 324.685 432.894 323.213 431.486 322.232C430.121 321.251 428.414 320.76 426.366 320.76Z" fill="currentColor"/>
<path d="M503.505 312.76V355H493.777V335.608L494.097 322.616H493.969L483.537 355H474.641L464.209 322.616H464.081L464.401 335.608V355H454.609V312.76H470.289L476.945 334.264L479.313 343.224H479.441L481.873 334.328L488.465 312.76H503.505Z" fill="currentColor"/>
<path d="M531.803 312.12C536.07 312.12 539.739 312.995 542.811 314.744C545.926 316.451 548.315 318.925 549.979 322.168C551.643 325.411 552.475 329.315 552.475 333.88C552.475 338.445 551.643 342.349 549.979 345.592C548.315 348.835 545.926 351.331 542.811 353.08C539.739 354.787 536.07 355.64 531.803 355.64C527.537 355.64 523.846 354.787 520.731 353.08C517.617 351.331 515.227 348.835 513.563 345.592C511.899 342.349 511.067 338.445 511.067 333.88C511.067 329.315 511.899 325.411 513.563 322.168C515.227 318.925 517.617 316.451 520.731 314.744C523.846 312.995 527.537 312.12 531.803 312.12ZM531.803 320.76C529.755 320.76 528.027 321.251 526.619 322.232C525.211 323.213 524.145 324.685 523.419 326.648C522.694 328.568 522.331 330.979 522.331 333.88C522.331 336.739 522.694 339.149 523.419 341.112C524.145 343.075 525.211 344.547 526.619 345.528C528.027 346.509 529.755 347 531.803 347C533.851 347 535.558 346.509 536.923 345.528C538.331 344.547 539.398 343.075 540.123 341.112C540.849 339.149 541.211 336.739 541.211 333.88C541.211 330.979 540.849 328.568 540.123 326.648C539.398 324.685 538.331 323.213 536.923 322.232C535.558 321.251 533.851 320.76 531.803 320.76Z" fill="currentColor"/>
</svg>
