<svg width="48" height="48" viewBox="0 0 48 48" fill="none" xmlns="http://www.w3.org/2000/svg">
<g clip-path="url(#clip0_510_1491)">
<circle cx="24" cy="24" r="24" fill="#DBDBDB"/>
<path fill-rule="evenodd" clip-rule="evenodd" d="M18.5802 13.6082L6 35.3699L8.84835 37L19.767 18.0909L23.4957 25.0131L18.5802 29.0125L18.9758 31.8652L29.9736 36.185L32.1099 34.0658L27.7615 25.7987L31.0813 23.2257L38.2022 36.674L40.8923 34.9624L33.7714 21.1066L42 14.6677L39.9429 12.0596L32.1099 18.0909L28.4703 11L25.7802 12.6301L29.4989 20.1285L26.1936 22.8179L21.3495 13.6082H18.5802ZM26.8879 31.3762L24.989 27.953L22.7736 29.6646L26.8879 31.3762Z" fill="#000080"/>
</g>
<defs>
<clipPath id="clip0_510_1491">
<rect width="48" height="48" fill="white"/>
</clipPath>
</defs>
</svg>
